<?xml version="1.0" encoding="UTF-8" standalone="no"?>
<!DOCTYPE svg PUBLIC "-//W3C//DTD SVG 1.1//EN" "http://www.w3.org/Graphics/SVG/1.1/DTD/svg11.dtd">
<svg version="1.1" xmlns="http://www.w3.org/2000/svg" xmlns:xlink="http://www.w3.org/1999/xlink" preserveAspectRatio="xMidYMid meet" viewBox="0 0 640 640" width="640" height="640"><defs><path d="M369.31 55.46L371.06 55.59L372.79 55.77L374.51 56.01L376.2 56.3L377.86 56.63L379.5 57.02L381.11 57.45L382.7 57.93L384.25 58.46L385.77 59.04L387.26 59.66L388.71 60.33L390.13 61.05L391.51 61.81L392.85 62.62L394.15 63.47L395.4 64.36L396.62 65.29L397.79 66.27L398.91 67.29L399.98 68.35L401.01 69.45L401.98 70.59L402.91 71.77L403.77 72.99L404.59 74.24L405.34 75.54L406.04 76.87L406.68 78.24L407.26 79.64L407.77 81.08L408.23 82.55L408.61 84.06L408.93 85.6L409.18 87.17L409.36 88.78L409.47 90.42L409.51 92.09L409.51 153.92L496.42 153.92L496.42 584.67L143.59 584.67L143.58 153.92L229.72 153.92L229.72 92.09L229.76 90.42L229.87 88.78L230.06 87.17L230.31 85.6L230.64 84.06L231.03 82.55L231.49 81.08L232.01 79.64L232.6 78.24L233.24 76.87L233.95 75.54L234.72 74.24L235.54 72.99L236.42 71.77L237.36 70.59L238.35 69.45L239.38 68.35L240.47 67.29L241.61 66.27L242.79 65.29L244.01 64.36L245.28 63.47L246.6 62.62L247.95 61.81L249.34 61.05L250.77 60.33L252.23 59.66L253.73 59.04L255.26 58.46L256.82 57.93L258.42 57.45L260.04 57.02L261.68 56.63L263.35 56.3L265.05 56.01L266.77 55.77L268.5 55.59L270.26 55.46L272.03 55.38L273.82 55.35L365.74 55.35L367.53 55.38L369.31 55.46ZM262.32 153.9L377.68 153.9L377.68 90.17L262.32 90.17L262.32 153.9Z" id="gIFLw16D8"></path><path d="M64.29 583.92C31.67 583.92 0 559.91 0 518.18C0 488.21 0 248.43 0 218.46C0 181.28 30.91 153.15 64.29 153.15C67.45 153.15 83.22 153.15 111.62 153.15L111.62 583.92C83.22 583.92 67.45 583.92 64.29 583.92Z" id="bhYjQt1It"></path><path d="M575.72 584.67C608.34 584.67 640 560.66 640 518.93C640 488.96 640 249.18 640 219.21C640 182.03 609.1 153.9 575.72 153.9C572.56 153.9 556.78 153.9 528.38 153.9L528.38 584.67C556.78 584.67 572.56 584.67 575.72 584.67Z" id="bIbvsbLdb"></path></defs><g><g><g><use xlink:href="#gIFLw16D8" opacity="1" fill="#ffffff" fill-opacity="1"></use><g><use xlink:href="#gIFLw16D8" opacity="1" fill-opacity="0" stroke="#000000" stroke-width="1" stroke-opacity="0"></use></g></g><g><use xlink:href="#bhYjQt1It" opacity="1" fill="#ffffff" fill-opacity="1"></use><g><use xlink:href="#bhYjQt1It" opacity="1" fill-opacity="0" stroke="#000000" stroke-width="1" stroke-opacity="0"></use></g></g><g><use xlink:href="#bIbvsbLdb" opacity="1" fill="#ffffff" fill-opacity="1"></use><g><use xlink:href="#bIbvsbLdb" opacity="1" fill-opacity="0" stroke="#000000" stroke-width="1" stroke-opacity="0"></use></g></g></g></g></svg>